<?xml version="1.0" encoding="UTF-8"?>
<svg id="_Слой_3" data-name="Слой 3" xmlns="http://www.w3.org/2000/svg" viewBox="0 0 82.16 82.76">
  <defs>
    <style>
      .cls-1 {
        fill: #cb2d2a;
      }
    </style>
  </defs>
  <path class="cls-1" d="M48.16,41.38L80.54,9c1.95-1.95,1.95-5.12,0-7.08-1.95-1.96-5.13-1.96-7.08,0l-32.38,32.38L8.7,1.92C6.75-.03,3.57-.03,1.62,1.92-.33,3.88-.33,7.05,1.62,9l32.38,32.38L1.62,73.76c-1.95,1.95-1.95,5.12,0,7.08.98.98,2.26,1.47,3.54,1.47s2.56-.49,3.54-1.47l32.38-32.38,32.38,32.38c.98.98,2.26,1.47,3.54,1.47s2.56-.49,3.54-1.47c1.95-1.95,1.95-5.12,0-7.08l-32.38-32.38Z"/>
</svg>