<?xml version="1.0" encoding="UTF-8"?>
<svg id="_Слой_3" data-name="Слой 3" xmlns="http://www.w3.org/2000/svg" viewBox="0 0 82.16 82.76">
  <defs>
    <style>
      .cls-1 {
        fill: #878787;
      }
    </style>
  </defs>
  <circle class="cls-1" cx="41.08" cy="62.15" r="5.34"/>
  <path class="cls-1" d="M41.08,49.69c-1.21,0-2.19-.98-2.19-2.19V15.46c0-1.21.98-2.19,2.19-2.19s2.19.98,2.19,2.19v32.04c0,1.21-.98,2.19-2.19,2.19Z"/>
  <path class="cls-1" d="M41.08,80.98C19.25,80.98,1.48,63.21,1.48,41.38S19.25,1.78,41.08,1.78s39.6,17.76,39.6,39.6-17.76,39.6-39.6,39.6ZM41.08,4.74C20.88,4.74,4.44,21.18,4.44,41.38s16.44,36.64,36.64,36.64,36.64-16.44,36.64-36.64S61.28,4.74,41.08,4.74Z"/>
</svg>