<?xml version="1.0" encoding="UTF-8"?>
<svg id="_Слой_3" data-name="Слой 3" xmlns="http://www.w3.org/2000/svg" xmlns:xlink="http://www.w3.org/1999/xlink" viewBox="0 0 518.44 90.98">
  <defs>
    <style>
      .cls-1 {
        fill: url(#_Безымянный_градиент_2);
      }

      .cls-2 {
        fill: url(#_Безымянный_градиент_4);
      }

      .cls-3 {
        fill: #fff;
        fill-rule: evenodd;
      }

      .cls-4 {
        fill: #283f85;
      }

      .cls-5 {
        fill: #6eaa45;
      }
    </style>
    <linearGradient id="_Безымянный_градиент_4" data-name="Безымянный градиент 4" x1="6.91" y1="905.63" x2="79.51" y2="809.62" gradientTransform="translate(0 900.11) scale(1 -1)" gradientUnits="userSpaceOnUse">
      <stop offset=".03" stop-color="#367943"/>
      <stop offset="1" stop-color="#d8d8d8" stop-opacity="0"/>
      <stop offset="1" stop-color="#d8d8d8" stop-opacity="0"/>
    </linearGradient>
    <linearGradient id="_Безымянный_градиент_2" data-name="Безымянный градиент 2" x1="82.62" y1="795.99" x2="23.17" y2="889.75" gradientTransform="translate(0 900.11) scale(1 -1)" gradientUnits="userSpaceOnUse">
      <stop offset="0" stop-color="#367943"/>
      <stop offset="1" stop-color="#6caa4c"/>
    </linearGradient>
  </defs>
  <g>
    <path class="cls-5" d="M135.23,72.65v-39.39h-3.52c-2.66,0-5.01.96-6.93,2.98-1.92,1.92-2.88,4.58-2.88,7.66,0,3.41.96,6.17,2.77,8.2,1.81,1.92,3.94,2.77,6.61,2.77h1.71v8.94h-4.26c-5.12,0-9.27-1.7-12.58-5.22-3.3-3.62-5.01-8.52-5.01-14.69,0-5.54,1.81-10.22,5.54-13.95,3.62-3.73,8.1-5.64,13.43-5.64h19.72c5.33,0,9.91,1.92,13.54,5.64,3.73,3.73,5.54,8.41,5.54,13.95,0,6.07-1.6,10.97-4.9,14.48-3.3,3.62-7.46,5.32-12.68,5.32h-4.26v-8.94h1.6c2.66,0,4.9-.96,6.72-2.77,1.92-2.02,2.88-4.79,2.88-8.2,0-3.09-1.07-5.75-3.2-7.77-2.03-1.92-4.37-2.88-7.03-2.88h-3.2v39.39h-9.59v.11Z"/>
    <path class="cls-5" d="M173.07,24.32h10.13v23c0,2.02.75,3.83,2.13,5.32,1.39,1.49,3.09,2.24,5.01,2.24h8.31v-30.55h10.13v39.5h-21.53c-3.84,0-7.03-1.28-9.7-3.83-2.88-2.66-4.26-5.96-4.26-9.9v-25.76h-.21Z"/>
    <path class="cls-5" d="M213.25,24.32h36.99l-.11,8.94h-13.43v30.55h-10.02v-30.55h-13.43v-8.94Z"/>
    <path class="cls-5" d="M274.65,32.83c-3.2,0-5.76,1.07-7.78,3.2-1.92,2.13-2.98,4.79-2.98,8.2,0,3.09.96,5.75,2.88,7.88,2.03,2.24,4.58,3.3,7.78,3.3s5.86-.96,7.78-3.09c1.92-2.02,2.88-4.68,2.88-8.09s-.96-6.07-2.98-8.2c-1.81-2.13-4.37-3.2-7.57-3.2ZM274.65,63.81c-5.97,0-10.98-1.7-14.92-5-4.26-3.62-6.4-8.52-6.4-14.69s2.13-11.07,6.4-14.69c3.94-3.41,8.95-5.11,14.92-5.11s10.98,1.7,14.92,5.11c4.26,3.62,6.4,8.52,6.4,14.69s-2.13,11.07-6.4,14.69c-3.94,3.3-8.95,5-14.92,5Z"/>
    <path class="cls-4" d="M329.33,72.65v-39.39h-3.52c-2.67,0-5.01.96-6.93,2.98-1.92,1.92-2.88,4.47-2.88,7.66,0,3.41.96,6.17,2.88,8.2,1.71,1.92,3.94,2.77,6.61,2.77h1.71v8.94h-4.26c-5.12,0-9.38-1.7-12.58-5.22-3.41-3.62-5.01-8.52-5.01-14.69,0-5.54,1.81-10.22,5.44-13.95,3.62-3.73,8.1-5.64,13.43-5.64h19.72c5.33,0,9.91,1.81,13.64,5.64,3.73,3.73,5.54,8.41,5.54,13.95,0,6.07-1.6,10.97-4.9,14.48-3.3,3.62-7.46,5.32-12.68,5.32h-4.26v-8.94h1.6c2.67,0,4.9-.96,6.61-2.77,1.92-2.02,2.88-4.79,2.88-8.2,0-3.09-1.07-5.75-3.2-7.77-2.02-1.92-4.37-2.88-7.03-2.88h-3.2v39.39h-9.59v.11Z"/>
    <path class="cls-4" d="M389.01,55.94h-24.09v-12.77c0-5.22,1.81-9.69,5.33-13.31,3.52-3.62,7.89-5.54,12.9-5.54s9.27,1.81,12.79,5.54c3.52,3.73,5.33,8.09,5.33,13.31v29.49h-10.13v-30.02c0-2.55-.75-4.79-2.34-6.6-1.6-1.81-3.41-2.77-5.65-2.77s-4.26.85-5.86,2.66c-1.6,1.81-2.45,3.94-2.45,6.49v4.58h13.96v8.94h.21Z"/>
    <path class="cls-4" d="M404.47,72.65V24.32h19.19c5.33,0,9.7,1.92,13.32,5.64,3.62,3.83,5.33,8.52,5.33,14.05,0,5.22-1.71,9.79-5.12,13.73-3.41,3.94-7.57,5.86-12.47,5.86h-8.1v-8.94h5.54c2.77,0,4.9-.85,6.71-2.66,1.92-1.92,2.77-4.68,2.77-8.09,0-3.09-.96-5.75-2.88-7.77-1.92-2.02-4.16-3.09-6.82-3.09h-7.46v39.39h-10.02v.21Z"/>
    <path class="cls-4" d="M444.55,24.32h22.28c2.13,0,4.16.64,6.08,1.92,1.92,1.28,3.52,2.98,4.8,5.22v-7.13h11.19c3.41,0,6.4,1.17,8.95,3.41,2.77,2.34,4.05,5.32,4.05,8.94v27.04h-10.02v-24.49c0-1.49-.53-2.87-1.49-4.15-.96-1.28-2.13-1.92-3.41-1.92h-8.63v30.55h-10.13v-24.59c0-1.38-.43-2.66-1.28-3.94-.96-1.28-2.03-2.02-3.2-2.02h-9.06v30.55h-10.13V24.32Z"/>
    <path class="cls-5" d="M514.79,19.74c-1.07-1.17-2.88-2.13-5.12-1.92-2.24.21-3.94,1.6-4.69,3.09-.21.53-.64,1.38-.64,2.13-.21,2.34.64,3.94,1.71,5,1.17,1.17,2.77,1.92,5.01,1.7,2.34-.21,4.16-1.92,4.9-3.62.53-1.17.53-2.45.32-3.62-.32-1.17-.96-2.24-1.49-2.77ZM513.09,28.36c-.85.53-2.13.85-3.3.75-1.81-.11-3.3-1.38-3.94-2.55-.32-.43-.64-1.28-.64-2.02-.11-1.38.32-2.77.75-3.41.75-1.06,2.02-2.13,3.73-2.34,2.67-.32,4.48,1.06,5.44,2.87.43.75.64,1.6.53,2.66-.21,1.81-1.28,3.19-2.56,4.04Z"/>
    <path class="cls-5" d="M514.79,19.74c-1.07-1.17-2.88-2.13-5.12-1.92-2.24.21-3.94,1.6-4.69,3.09-.21.53-.64,1.38-.64,2.13-.21,2.34.64,3.94,1.71,5,1.17,1.17,2.77,1.92,5.01,1.7,2.34-.21,4.16-1.92,4.9-3.62.53-1.17.53-2.45.32-3.62-.32-1.17-.96-2.24-1.49-2.77ZM513.09,28.36c-.85.53-2.13.85-3.3.75-1.81-.11-3.3-1.38-3.94-2.55-.32-.43-.64-1.28-.64-2.02-.11-1.38.32-2.77.75-3.41.75-1.06,2.02-2.13,3.73-2.34,2.67-.32,4.48,1.06,5.44,2.87.43.75.64,1.6.53,2.66-.21,1.81-1.28,3.19-2.56,4.04Z"/>
    <path class="cls-5" d="M512.98,24.42c-.11-.32-.43-.32-.64-.53,1.28-.43,1.07-2.34.43-2.98-.85-.85-3.41-.43-4.9-.53v6.71h1.38v-2.66c.85.11,1.71-.21,2.13.11.75.42.11,1.81.43,2.55h1.6c0-.32-.21-.32-.32-.64-.11-.64.21-1.49-.11-2.02ZM511.59,23.15c-.53.43-1.6.11-2.45.21v-1.81c.85.11,1.92-.21,2.45.21.43.32.43,1.17,0,1.38Z"/>
    <path class="cls-5" d="M512.98,24.42c-.11-.32-.43-.32-.64-.53,1.28-.43,1.07-2.34.43-2.98-.85-.85-3.41-.43-4.9-.53v6.71h1.38v-2.66c.85.11,1.71-.21,2.13.11.75.42.11,1.81.43,2.55h1.6c0-.32-.21-.32-.32-.64-.11-.64.21-1.49-.11-2.02ZM511.59,23.15c-.53.43-1.6.11-2.45.21v-1.81c.85.11,1.92-.21,2.45.21.43.32.43,1.17,0,1.38Z"/>
    <path class="cls-5" d="M514.79,19.74c-1.07-1.17-2.88-2.13-5.12-1.92-2.24.21-3.94,1.6-4.69,3.09-.21.53-.64,1.38-.64,2.13-.21,2.34.64,3.94,1.71,5,1.17,1.17,2.77,1.92,5.01,1.7,2.34-.21,4.16-1.92,4.9-3.62.53-1.17.53-2.45.32-3.62-.32-1.17-.96-2.24-1.49-2.77ZM513.09,28.36c-.85.53-2.13.85-3.3.75-1.81-.11-3.3-1.38-3.94-2.55-.32-.43-.64-1.28-.64-2.02-.11-1.38.32-2.77.75-3.41.75-1.06,2.02-2.13,3.73-2.34,2.67-.32,4.48,1.06,5.44,2.87.43.75.64,1.6.53,2.66-.21,1.81-1.28,3.19-2.56,4.04Z"/>
    <path class="cls-5" d="M512.98,24.42c-.11-.32-.43-.32-.64-.53,1.28-.43,1.07-2.34.43-2.98-.85-.85-3.41-.43-4.9-.53v6.71h1.38v-2.66c.85.11,1.71-.21,2.13.11.75.42.11,1.81.43,2.55h1.6c0-.32-.21-.32-.32-.64-.11-.64.21-1.49-.11-2.02ZM511.59,23.15c-.53.43-1.6.11-2.45.21v-1.81c.85.11,1.92-.21,2.45.21.43.32.43,1.17,0,1.38Z"/>
  </g>
  <g>
    <ellipse class="cls-2" cx="45.28" cy="45.22" rx="45.28" ry="45.22"/>
    <ellipse class="cls-1" cx="45.28" cy="45.22" rx="45.28" ry="45.22"/>
    <path class="cls-3" d="M43.88,25.86h2.32v54.27h-2.32V25.86ZM45.16,12.64c2.55,0,4.64,2.09,4.64,4.64s-2.09,4.64-4.64,4.64-4.64-2.09-4.64-4.64,2.09-4.64,4.64-4.64ZM40.05,48.82c-1.28-4.41-15.32-20.52-19.85-14.49-4.76,6.49,15.21,14.38,19.85,14.49ZM40.17,70.27c-1.28-5.68-17.41-26.79-23.33-19.83-6.5,7.54,17.41,19.13,23.33,19.83ZM50.15,69.92c1.28-5.57,17.41-26.79,23.33-19.83,6.5,7.65-17.53,19.25-23.33,19.83ZM50.5,49.17c1.39-4.41,15.44-20.52,19.85-14.61,4.76,6.49-15.09,14.49-19.85,14.61ZM49.8,32.24c.81-3.48,10.8-16.58,14.4-12.29,4.06,4.75-10.8,11.94-14.4,12.29ZM40.63,32.24c-.81-3.48-10.8-16.58-14.51-12.29-3.95,4.75,10.91,11.94,14.51,12.29Z"/>
    <path class="cls-4" d="M45.16,0C20.2,0,0,20.18,0,44.99s20.2,45.11,45.16,45.11,45.16-20.18,45.16-45.11c-.12-24.81-20.32-44.99-45.16-44.99ZM75.11,74.91c-7.66,7.65-18.23,12.41-29.95,12.41s-22.29-4.75-29.95-12.41c-7.66-7.65-12.42-18.2-12.42-29.92S7.55,22.73,15.21,15.07c7.66-7.65,18.23-12.41,29.95-12.41s22.29,4.75,29.95,12.41c7.66,7.65,12.42,18.2,12.42,29.92s-4.76,22.26-12.42,29.92Z"/>
  </g>
</svg>