<?xml version="1.0" encoding="UTF-8"?>
<svg id="_Слой_3" data-name="Слой 3" xmlns="http://www.w3.org/2000/svg" viewBox="0 0 77.38 75.21">
  <defs>
    <style>
      .cls-1 {
        fill: #3c3c3b;
      }
    </style>
  </defs>
  <path class="cls-1" d="M74.26,48.55h-24.98c-1.31,4.71-5.46,8.24-10.59,8.24s-9.27-3.53-10.59-8.24H3.12c-1.57,0-2.84,1.27-2.84,2.84v20.75c0,1.57,1.27,2.84,2.84,2.84h71.13c1.57,0,2.84-1.27,2.84-2.84v-20.75c0-1.57-1.27-2.84-2.84-2.84ZM70.07,63.48c-.95,0-1.72-.77-1.72-1.72s.77-1.72,1.72-1.72,1.72.77,1.72,1.72-.77,1.72-1.72,1.72Z"/>
  <path class="cls-1" d="M56.24,23.91l-13.41,14.42V4.38c0-2.29-1.86-4.15-4.15-4.15h0c-2.29,0-4.15,1.86-4.15,4.15v33.96l-13.41-14.43c-1.1-1.18-2.94-1.25-4.12-.15h0c-1.18,1.1-1.24,2.94-.15,4.11l20.44,21.99c.75.8,2.01.8,2.76,0l20.45-21.99c1.09-1.18,1.03-3.02-.15-4.12h0c-1.18-1.1-3.02-1.03-4.12.15Z"/>
</svg>