<?xml version="1.0" encoding="UTF-8"?>
<svg id="_Слой_1" data-name="Слой 1" xmlns="http://www.w3.org/2000/svg" viewBox="0 0 100 100">
  <defs>
    <style>
      .cls-1 {
        fill: #6a7c95;
      }
    </style>
  </defs>
  <path class="cls-1" d="M82.05,36.68h-.82v-15.03c0-9.38-7.63-17.02-17.02-17.02h-28.44c-9.38,0-17.02,7.63-17.02,17.02v15.03h-.81c-5.83,0-10.55,4.72-10.55,10.55v37.59c0,5.83,4.72,10.55,10.55,10.55h64.11c5.83,0,10.55-4.72,10.55-10.55v-37.59c0-5.83-4.72-10.55-10.55-10.55ZM39.88,82.78l5.74-16c-2.98-1.58-5.03-4.67-5.03-8.28,0-5.19,4.21-9.41,9.41-9.41s9.41,4.21,9.41,9.41c0,3.61-2.05,6.7-5.03,8.28l5.75,16h-20.24ZM72.47,36.68H27.53v-15.03c0-4.55,3.7-8.25,8.25-8.25h28.44c4.55,0,8.25,3.7,8.25,8.25v15.03Z"/>
</svg>